# xmcd
#
# Track frame offsets: 
#        150
#        25271
#        48694
#        72179
#        96812
#        119594
#        144864
#        170910
#        196260
#        221726
#        247196
#        268268
#
# Disc length: 3893 seconds
#
# Revision: 0
# Processed by: cddbd v1.5.1PL0 Copyright (c) Steve Scherf et al.
# Submitted via: ExactAudioCopy v0.95a5
#
DISCID=bf0f330c
DTITLE=theguitar.net - Blues Loops #3
DYEAR=2004
DGENRE=jam tracks
TTITLE0=Blues Shuffle in Cm
TTITLE1=Blues in D
TTITLE2=Blues Shuffle in A
TTITLE3=Bb Blues
TTITLE4=Bm Blues
TTITLE5=Slow Blues in C
TTITLE6=Slow Blues in Em
TTITLE7=Blues in C
TTITLE8=Blues Shuffle in G
TTITLE9=Blues Shuffle in E
TTITLE10=Blues in C
TTITLE11=Blues in G
EXTD=
EXTT0=
EXTT1=
EXTT2=
EXTT3=
EXTT4=
EXTT5=
EXTT6=
EXTT7=
EXTT8=
EXTT9=
EXTT10=
EXTT11=
PLAYORDER=
